Patient4_TMGait_0pt7_02_right_46_EMG.mot
version=1
nRows=16
nColumns=33
inDegrees=no
endheader
time	1LAddLong	2LGlutMax	3LGlutMed	4LIliopsoas	5LSemiMemb	6LBicFemLong	7LRecFem	8LVastMed	9LVastLat	10LGasMed	11LTibAnt	12lTibPost	13LPeroneusLong	14LSol	15LExtDigLong	16LFlexDigLong	17RAddLong	18RGlutMax	19RGlutMed	20RIliopsoas	21RSemiMemb	22RBicFemLong	23RRecFem	24RVastMed	25RVastLat	26RGasMed	27RTibAnt	28RTibPost	29RPeroneusLong	30RSol	31RExtDigLong	32RFlexDigLong
52.07	-0.011597	-0.20554	-0.074921	-0.002899	-0.053711	-0.64133	-0.11719	0.010376	0.053864	0.005646	0.02243	0.12604	0.1535	-0.16892	0.12848	0.023499	-0.008392	0.002136	0.40604	0.076904	0.032043	0.024567	0.063782	0.087128	0.031738	-0.000305	0.29098	-0.006866	0.32242	-0.002441	-0.001984	-0.025024
52.071	-0.02243	-0.17899	0	-0.007935	-0.018921	-0.41794	-0.028381	0.002136	0.06546	0.072937	0.020905	0.046997	-0.60349	-0.25528	0.012054	0.050354	-0.022125	-0.039215	0.31387	-0.042572	0.03006	0.048065	0.075684	0.072479	0.023193	0.000305	-0.63431	-0.002136	0.59448	-0.030975	-0.003967	-0.020599
52.072	-0.018005	-0.22827	0.057678	-0.007935	-0.015564	-0.42541	0.006256	-0.003662	0.045776	-0.010223	0.000153	-0.14481	0.10101	-0.15228	-0.002136	0.029602	-0.038452	-0.048218	0.39841	-0.16663	0.037689	0.031281	0.13657	0.040741	0.007477	-0.005035	-0.51636	0.007324	-0.20554	-0.09491	0.000763	-0.022125
52.073	-0.01297	-0.24475	0.040131	-0.014191	0.019989	-0.39078	0.086365	-0.017548	0.12756	-0.11932	-0.000153	-0.032959	0.050964	-0.12741	-0.026093	0.024414	-0.025177	-0.039215	0.50995	-0.28336	0.03891	0.032349	0.11505	0.041962	-0.014343	-0.00412	-0.022278	-0.002441	-0.96695	-0.14343	-0.003662	-0.028992
52.074	-0.006866	-0.21561	-0.046844	0.000916	0.09491	-0.31433	0.12512	-0.012512	0.15213	0.13489	-0.008392	-0.020447	-0.28168	-0.14893	-0.046997	0.008545	-0.019226	-0.031433	0.53848	-0.21286	0.021057	0.031891	0.14496	0.00885	-0.02655	-0.004883	0.23804	-0.000916	-0.27954	-0.12421	0.000763	-0.023499
52.075	-0.010986	-0.25162	-0.10864	-0.000458	0.11108	-0.18249	0.16953	-0.016327	0.082703	-0.24735	-0.023956	-0.010986	-0.46478	0.018768	0.080109	-0.001068	-0.024414	-0.084381	0.72266	-0.14893	0.023041	0.017853	0.20676	0.007935	-0.024414	-0.001068	0.27283	-0.007172	0.15564	-0.082245	-0.002899	-0.019226
52.076	-0.022583	-0.29037	-0.20706	0.044098	0.060883	-0.076599	0.036926	0.003204	0.024414	-0.22232	-0.003662	0.010834	-0.45303	0.001984	0.035858	0.010681	-0.014343	-0.037079	0.77408	0.068054	0.005341	0.023041	0.20569	0.002899	-0.012207	-0.011444	-0.01358	-0.01236	0.13184	0.027008	0.001678	-0.011597
52.077	-0.022888	-0.31464	-0.074158	0.04303	0.039673	-0.06134	-0.019531	0.007324	0.060272	0.12054	-0.002594	0.05661	-0.26901	-0.35263	-0.093384	-0.024261	0.011292	-0.063477	0.62057	0.21316	0.000916	0.03067	0.20294	0.016327	-0.016479	-0.018311	-0.10468	-0.002136	0.050354	0.051575	-0.002899	-0.012817
52.078	-0.020599	-0.36636	-0.001221	0.021515	0.006866	-0.002289	-0.10208	-0.004272	0.15564	0.21896	-0.029144	0.099945	-0.1886	-0.55328	-0.081635	0.009003	0.021057	-0.002136	0.60699	0.016022	-0.009003	0.014191	0.23697	0.020447	-0.02182	-0.012054	-0.15427	-0.006561	0.052643	0.047455	-0.000458	-0.016479
52.079	-0.011292	-0.37415	0.15839	-0.018158	0.021057	0.082092	-0.10742	0.006256	0.099182	0.23499	0.005646	0.063934	-0.26916	-0.52353	0.028381	0.009766	0.022583	0.002594	0.81177	-0.17273	-0.008545	0.015411	0.23987	0.026398	-0.019989	-0.010223	-0.15152	-0.007782	0.084686	0.023193	-0.003662	-0.015106
52.08	-0.003815	-0.35111	0.073853	-0.003662	-0.025177	0.14587	-0.028381	0.014954	0.030365	0.22568	-0.001373	-0.007629	0.056915	-0.39002	0.061035	0.006561	0.031128	-0.020447	0.99838	-0.13351	-0.02182	0.00946	0.19592	0.01709	-0.029449	-0.007629	0.029602	-0.002136	0.15472	0.076752	-0.005341	-0.007324
52.081	-0.007782	-0.32577	-0.003357	0.004883	-0.045776	0.15045	0.083008	0.014801	0.039673	0.064545	-0.02182	0.002899	0.23636	-0.09201	0.049744	0.003662	0.041199	-0.050354	0.98694	-0.021515	-0.029297	0.005798	0.16983	-0.071869	-0.024567	-0.016632	0.29419	-0.00351	0.19577	0.15274	-0.000916	-0.013733
52.082	-0.01236	-0.31906	0.040283	-0.006561	-0.055847	0.18356	0.13138	0.005798	0.045166	-0.029602	-0.007172	0.03067	0.11734	0.005951	0.059662	-0.016632	0.037537	-0.050201	0.42877	0.11139	-0.031128	0.016174	0.15076	-0.061798	-0.036469	-0.022888	0.4216	-0.004883	0.02121	0.14664	-0.001831	0.000305
52.083	-0.006561	-0.3331	0.068359	0.003204	-0.048676	0.074463	0.075073	-0.009155	0.050049	-0.20874	0.021667	0.03006	0.25497	0.11429	0.009766	-0.009613	0.026703	-0.084229	0.45425	0.25284	-0.036774	0.009918	0.14389	-0.078735	-0.029144	-0.010071	0.40039	-0.001526	-0.15137	0.06012	-0.000763	-0.008392
52.084	-0.006104	-0.32806	-0.025635	-0.014648	0.027618	-0.080414	0.032806	-0.01297	0.041809	-0.20844	-0.057678	0.017242	0.24597	0.10407	-0.1178	-0.02594	0.022888	-0.046082	0.24262	0.38956	-0.039825	0.006104	0.070953	-0.10346	-0.015564	-0.004578	0.050354	-0.001984	-0.21484	-0.027161	-0.00061	-0.001678
52.085	-0.010681	-0.31845	0.002594	0.028992	0.051422	-0.11444	0.056915	-0.003204	0.030823	-0.11795	-0.031433	0.001221	0.16388	-0.068512	-0.20294	0.001984	0.007324	-0.026855	-0.077972	0.30884	-0.045929	0.026703	-0.022278	-0.056915	-0.006866	-0.006256	0.24124	-0.001526	-0.35675	-0.011902	0	-0.00061
